<?xml version="1.0" encoding="UTF-8" standalone="no"?>
<!DOCTYPE svg PUBLIC "-//W3C//DTD SVG 1.1//EN" "http://www.w3.org/Graphics/SVG/1.1/DTD/svg11.dtd">
<svg width="100%" height="100%" viewBox="0 0 1038 198" version="1.1" xmlns="http://www.w3.org/2000/svg" xmlns:xlink="http://www.w3.org/1999/xlink" xml:space="preserve" xmlns:serif="http://www.serif.com/" style="fill-rule:evenodd;clip-rule:evenodd;stroke-linejoin:round;stroke-miterlimit:2;">
    <path d="M828.488,197.173L733.69,197.173C737.673,192.403 740.86,186.838 742.453,181.272L799.013,27.032L799.013,26.237C801.403,21.467 802.2,15.901 802.2,10.336L962.321,10.336C961.524,15.106 962.321,19.081 964.711,23.057C964.711,23.852 965.507,24.647 965.507,26.237C970.287,37.368 1021.27,168.552 1025.25,180.477C1026.85,186.043 1030.03,191.608 1034.02,196.378L913.727,196.378C913.727,190.813 912.93,185.248 909.744,180.477C909.744,180.477 908.15,175.707 904.964,170.142L904.167,167.756L834.861,167.756L834.064,170.937C834.064,170.937 831.675,176.502 830.081,181.272L829.285,182.863C829.285,186.838 828.488,191.608 828.488,197.173ZM870.709,73.145C869.913,77.12 869.116,81.096 867.523,85.071C867.523,85.866 865.133,91.431 862.743,99.382C859.556,107.332 856.37,117.668 852.387,128.799L892.218,128.799L875.489,85.866C872.302,81.096 871.506,77.12 870.709,73.145ZM293.954,197.173L179.24,197.173C181.63,192.403 182.427,186.838 181.63,181.272L181.63,26.237C182.427,20.671 180.833,15.106 179.24,10.336L293.954,10.336C291.564,15.106 290.767,20.671 291.564,26.237L291.564,93.816C291.564,93.816 328.209,46.908 336.972,35.777C340.158,31.802 350.514,16.696 350.514,10.336L470.008,10.336C460.448,17.491 452.482,25.442 445.312,34.187C438.939,42.138 401.498,86.661 401.498,86.661C401.498,86.661 456.465,168.552 463.635,180.477C467.618,186.043 472.398,191.608 477.177,196.378L340.158,196.378C338.565,187.633 334.582,178.887 329.005,171.732C323.429,163.781 294.751,120.848 291.564,116.078L291.564,181.272C290.767,186.043 291.564,191.608 293.954,197.173ZM719.351,197.173L497.889,197.173C500.279,192.403 501.076,186.838 500.279,181.272L500.279,26.237C501.076,20.671 499.483,15.106 497.889,10.336L719.351,10.336L719.351,62.014C714.571,59.629 708.995,58.834 703.418,59.629L609.417,59.629L609.417,84.276L699.435,84.276L699.435,124.028L609.417,124.028L609.417,148.675L702.622,148.675C708.198,149.47 713.774,147.88 718.554,146.29L719.351,197.173ZM125.07,197.173L0,197.173C2.39,192.403 3.186,186.838 2.39,181.272L2.39,26.237C3.186,20.671 1.593,15.106 0,10.336L125.07,10.336C122.68,15.106 121.883,20.671 122.68,26.237L122.68,180.477C121.883,186.043 122.68,191.608 125.07,197.173ZM1013.3,50.088C1006.14,50.088 999.762,46.908 994.982,42.138C990.203,37.368 987.813,31.007 988.609,24.647L988.609,23.057C988.609,10.336 999.762,0 1012.51,0L1014.1,0C1027.64,0 1038,11.131 1038,24.647L1038,26.237C1038,32.597 1034.81,38.958 1030.83,42.933C1025.25,47.703 1019.68,50.088 1013.3,50.088ZM1011.71,5.565C1006.93,5.565 1002.15,7.951 998.169,11.926C994.982,15.901 992.592,20.671 993.389,25.442L993.389,27.032C993.389,37.368 1002.15,46.113 1013.3,46.113L1014.1,46.113C1019.68,46.113 1024.46,43.728 1028.44,39.753C1032.42,35.777 1034.02,31.007 1034.02,25.442L1034.02,24.647C1034.02,14.311 1025.25,5.565 1014.1,5.565L1011.71,5.565ZM1007.73,39.753L1003.75,39.753L1003.75,10.336L1014.9,10.336C1020.47,10.336 1024.46,14.311 1024.46,19.876C1024.46,23.852 1022.07,27.032 1018.88,28.622L1025.25,39.753L1020.47,39.753L1014.9,29.417L1008.52,29.417L1007.73,39.753ZM1007.73,15.106L1007.73,25.442L1014.1,25.442C1016.49,25.442 1018.88,23.057 1018.88,20.671C1018.88,17.491 1016.49,15.106 1014.1,15.106L1007.73,15.106Z" style="fill:rgb(255,219,0);fill-rule:nonzero;"/>
</svg>
