<svg width="677" height="185" viewBox="0 0 677 185" fill="none" xmlns="http://www.w3.org/2000/svg">
<path fill-rule="evenodd" clip-rule="evenodd" d="M163.585 78.3399C161.752 103.069 142.093 125.433 116.832 126.453V107.74C116.832 90.6084 104.622 75.7976 87.801 72.5309L25.1579 60.3511V18.0911C25.1579 6.72424 35.5341 -1.83417 46.694 0.338688L111.126 12.8586C146.779 20.6188 165.847 47.9494 163.6 78.3399H163.585ZM47.3739 137.421L10.3029 130.222C4.96685 129.188 0 133.267 0 138.707V164.367C0 170.768 4.53761 176.266 10.8197 177.493L47.8914 184.692C53.2275 185.726 58.1943 181.632 58.1943 176.207V150.547C58.1943 144.146 53.656 138.648 47.3739 137.421ZM84.8303 86.4252L28.2917 75.4428C20.1472 73.8612 12.5937 80.0989 12.5937 88.3913V116.254C12.7268 116.284 12.8743 116.298 13.0073 116.328L50.079 123.527C62.9831 126.039 72.355 137.391 72.355 150.547V156.371L86.7076 159.164C94.8521 160.746 102.405 154.508 102.405 146.216V107.755C102.405 97.3635 95.0295 88.4207 84.8303 86.44V86.4252Z" fill="white"/>
<path fill-rule="evenodd" clip-rule="evenodd" d="M513.045 94.4072C523.023 94.4072 531.759 99.4624 536.814 107.119L557.996 94.555C548.565 79.6702 532.039 69.8258 513.045 69.8258C483.675 69.8258 459.759 93.7273 459.759 123.113C459.759 152.498 483.66 176.399 513.045 176.399C531.892 176.399 548.432 166.57 557.996 151.803L536.548 139.505C531.36 146.881 522.757 151.803 513.045 151.803C497.2 151.803 484.355 138.958 484.355 123.113C484.355 107.267 497.2 94.422 513.045 94.422V94.4072Z" fill="white"/>
<path fill-rule="evenodd" clip-rule="evenodd" d="M628.488 69.811C615.51 69.811 603.758 74.8663 595.023 83.203V24.7279H570.427V172.275H595.023V123.098C595.023 107.252 607.868 94.4072 623.714 94.4072C639.559 94.4072 652.404 107.252 652.404 123.098V172.275H677V118.309C677 91.5249 655.272 69.811 628.503 69.811H628.488Z" fill="white"/>
<path fill-rule="evenodd" clip-rule="evenodd" d="M437.912 151.641H435.178C434.365 151.641 433.537 151.508 432.724 151.375C427.122 150.281 422.894 145.225 422.894 139.357V98.5164H447.491V73.9202H422.894V24.7427H398.298V139.505C398.298 159.859 414.824 176.385 435.178 176.385C444.46 176.385 452.945 172.97 459.493 167.235L447.608 147.014C445.421 149.882 441.873 151.655 437.912 151.655V151.641Z" fill="white"/>
<path d="M369.607 52.0586C377.15 52.0586 383.266 45.9437 383.266 38.4006C383.266 30.8575 377.15 24.7427 369.607 24.7427C362.064 24.7427 355.95 30.8575 355.95 38.4006C355.95 45.9437 362.064 52.0586 369.607 52.0586Z" fill="white"/>
<path d="M381.906 73.9203H357.309V172.29H381.906V73.9203Z" fill="white"/>
<path fill-rule="evenodd" clip-rule="evenodd" d="M285.576 24.7279H238.438V172.275H263.034V143.585H285.576C318.361 143.585 344.996 116.949 344.996 84.1638C344.996 51.3788 318.361 24.7427 285.576 24.7427V24.7279ZM285.576 118.989H263.034V49.3093H285.576C304.836 49.3093 320.415 64.8889 320.415 84.149C320.415 103.409 304.836 118.989 285.576 118.989Z" fill="white"/>
</svg>
