<?xml version="1.0" encoding="UTF-8" standalone="no"?>
<!DOCTYPE svg PUBLIC "-//W3C//DTD SVG 1.1//EN" "http://www.w3.org/Graphics/SVG/1.1/DTD/svg11.dtd">
<svg width="100%" height="100%" viewBox="0 0 1008 386" version="1.1" xmlns="http://www.w3.org/2000/svg" xmlns:xlink="http://www.w3.org/1999/xlink" xml:space="preserve" xmlns:serif="http://www.serif.com/" style="fill-rule:evenodd;clip-rule:evenodd;stroke-linejoin:round;stroke-miterlimit:2;">
    <g id="Artboard1" transform="matrix(1,0,0,1,-99,-206)">
        <rect x="99" y="206" width="1007.529" height="385.787" style="fill:none;"/>
        <g transform="matrix(8.28879,0,0,8.28879,138.461538,268.885438)">
            <path d="M53.806,5.274L54.736,5.814C56.116,6.604 56.406,7.254 55.926,8.814C55.146,11.314 54.336,13.814 53.536,16.304L51.386,22.994C51.284,23.276 51.263,23.581 51.326,23.874C51.506,23.704 51.696,23.544 51.866,23.354C55.866,18.908 59.836,14.458 63.776,10.004C65.696,7.844 66.316,7.754 68.656,9.444C68.981,9.678 69.292,9.932 69.586,10.204C70.399,10.868 70.694,11.986 70.316,12.964C69.476,15.444 68.676,17.964 67.866,20.434C67.776,20.724 67.696,21.014 67.536,21.544L73.256,16.204C74.786,14.774 76.336,13.344 77.846,11.884C78.296,11.432 78.692,10.929 79.026,10.384C79.185,9.922 79.623,9.61 80.113,9.61C80.358,9.61 80.598,9.688 80.796,9.834C81.622,10.316 82.408,10.865 83.146,11.474C83.8,11.995 84.04,12.886 83.736,13.664C82.966,16.104 82.186,18.534 81.416,20.974C81.336,21.224 81.286,21.474 81.156,21.974L88.936,13.804C90.256,12.414 91.566,11.014 92.936,9.644C93.613,8.765 94.662,8.249 95.771,8.249C96.674,8.249 97.544,8.591 98.206,9.204C98.746,9.614 99.306,10.004 99.816,10.454C100.48,10.931 100.876,11.701 100.876,12.519C100.876,13.052 100.708,13.572 100.396,14.004C99.296,16.004 98.136,18.004 97.176,20.154C96.687,21.419 96.309,22.724 96.046,24.054C95.979,24.418 95.979,24.791 96.046,25.154C96.045,25.173 96.045,25.191 96.045,25.21C96.045,26.362 96.993,27.31 98.145,27.31C98.53,27.31 98.907,27.204 99.236,27.004C101.054,26.106 102.547,24.661 103.506,22.874C105.048,20.433 105.943,17.638 106.106,14.754C106.182,14.195 105.902,13.643 105.406,13.374C104.666,12.924 103.966,12.374 103.256,11.924C102.786,11.594 102.666,11.064 103.156,10.774C104.479,9.95 105.871,9.24 107.316,8.654C108.42,8.249 109.667,8.748 110.186,9.804C110.773,10.669 111.162,11.652 111.326,12.684C111.676,19.154 109.686,24.764 104.676,29.024C102.237,31.219 98.862,32.066 95.676,31.284C92.925,30.571 90.951,28.124 90.836,25.284C90.73,22.18 91.477,19.104 92.996,16.394L93.516,15.394C93.547,15.27 93.567,15.143 93.576,15.014C93.196,15.384 92.926,15.624 92.676,15.894L79.506,30.094C78.266,31.424 77.736,31.494 76.256,30.494C75.696,30.114 75.139,29.724 74.586,29.324C73.857,28.9 73.562,27.984 73.906,27.214C74.716,25.114 75.546,23.024 76.366,20.924C76.525,20.577 76.604,20.197 76.596,19.814L73.266,22.964C70.666,25.431 68.069,27.901 65.476,30.374C64.396,31.374 63.986,31.374 62.726,30.574L61.036,29.424C60.036,28.734 59.816,28.334 60.196,27.154C61.326,23.624 62.516,20.154 63.676,16.604L64.676,13.464L64.416,13.254C64.296,13.485 64.159,13.705 64.006,13.914L50.306,29.764C48.806,31.494 48.306,31.574 46.406,30.334C43.586,28.474 43.506,28.244 44.536,25.054L50.536,6.324C50.666,5.924 50.826,5.524 51.016,5.014L24.586,5.014C23.417,5.156 22.3,4.45 21.926,3.334C21.616,2.564 21.176,1.844 20.846,1.084C20.516,0.324 20.696,0.084 21.496,0.024L82.236,0.024C83.493,-0.149 84.702,0.622 85.076,1.834C85.316,2.464 85.676,3.054 85.966,3.664C86.456,4.724 86.286,5.004 85.156,5.034L53.856,5.034L53.806,5.274Z" style="fill-rule:nonzero;"/>
        </g>
        <g transform="matrix(8.28879,0,0,8.28879,138.461538,268.885438)">
            <path d="M7.786,21.404L10.636,18.944C12.756,17.104 14.826,15.184 17.016,13.434C18.287,12.405 19.26,11.055 19.836,9.524C20.426,8.064 21.066,7.894 22.396,8.764C24.956,10.454 25.066,10.904 24.096,13.764C23.006,17.004 22.006,20.274 20.966,23.534C20.916,23.694 20.896,23.874 20.806,24.304L24.086,20.714L34.036,9.714C35.556,8.034 36.846,7.904 38.906,8.874C40.702,9.588 41.803,11.435 41.576,13.354C41.446,17.954 41.436,22.554 41.406,27.154C41.457,28.23 40.862,29.239 39.896,29.714C38.996,30.204 38.116,30.714 37.236,31.224C36.46,31.696 35.502,31.767 34.666,31.414C31.166,30.094 30.786,29.514 30.986,25.614C31.036,24.614 31.436,24.304 32.436,24.674C33.436,25.044 34.136,25.384 35.126,25.794L35.126,12.794C34.936,12.974 34.746,13.124 34.586,13.314L19.926,29.914C18.546,31.474 17.926,31.574 16.236,30.414C15.676,30.024 15.126,29.634 14.586,29.224C13.789,28.73 13.441,27.738 13.756,26.854C14.256,25.264 14.756,23.694 15.326,22.124C15.458,21.808 15.522,21.467 15.516,21.124L12.146,24.244L5.356,30.544C4.426,31.404 4.166,31.424 3.096,30.714C2.456,30.284 1.816,29.854 1.176,29.414C-0.054,28.574 -0.234,28.104 0.246,26.684C1.436,23.144 2.656,19.624 3.856,16.084C4.136,15.274 4.726,14.344 4.526,13.664C4.326,12.984 3.276,12.664 2.606,12.184C2.406,12.044 2.196,11.904 1.996,11.754C1.486,11.364 1.426,10.874 1.996,10.544C3.283,9.722 4.619,8.977 5.996,8.314C6.557,8.185 7.147,8.275 7.646,8.564C8.408,9.021 9.133,9.536 9.816,10.104C10.48,10.392 10.911,11.05 10.911,11.774C10.911,12.102 10.823,12.423 10.656,12.704C9.766,15.264 8.856,17.824 7.956,20.384C7.846,20.694 7.746,21.004 7.636,21.314L7.786,21.404Z" style="fill-rule:nonzero;"/>
        </g>
    </g>
</svg>
